<?xml version="1.0" encoding="utf-8"?>
<!-- Generator: Adobe Illustrator 16.0.0, SVG Export Plug-In . SVG Version: 6.00 Build 0)  -->
<!DOCTYPE svg PUBLIC "-//W3C//DTD SVG 1.1//EN" "http://www.w3.org/Graphics/SVG/1.1/DTD/svg11.dtd">
<svg version="1.1" id="Layer_2" xmlns="http://www.w3.org/2000/svg" xmlns:xlink="http://www.w3.org/1999/xlink" x="0px" y="0px"
	 width="239px" height="239px" viewBox="0 0 239 239" enable-background="new 0 0 239 239" xml:space="preserve">
<g>
	<g>
		<g>
			<g>
				
					<linearGradient id="SVGID_1_" gradientUnits="userSpaceOnUse" x1="-424.2183" y1="504.4668" x2="-361.6884" y2="504.4668" gradientTransform="matrix(0.9999 -0.0123 -0.0123 -0.9999 495.9115 620.8479)">
					<stop  offset="0" style="stop-color:#000000"/>
					<stop  offset="1" style="stop-color:#4F504F"/>
				</linearGradient>
				<rect x="68.89" y="115.74" fill="url(#SVGID_1_)" width="55.8" height="11.05"/>
			</g>
			<g>
				
					<linearGradient id="SVGID_2_" gradientUnits="userSpaceOnUse" x1="-1553.189" y1="644.249" x2="-1492.8889" y2="644.249" gradientTransform="matrix(1.658375e-005 -1 -1 1.000000e-003 722.0148 -1406.1389)">
					<stop  offset="0" style="stop-color:#000000"/>
					<stop  offset="1" style="stop-color:#4F504F"/>
				</linearGradient>
				<rect x="68.99" y="81.44" fill="url(#SVGID_2_)" width="17.5" height="79.85"/>
			</g>
		</g>
		<g>
			
				<linearGradient id="SVGID_3_" gradientUnits="userSpaceOnUse" x1="-1538.0454" y1="601.8809" x2="-1516.0194" y2="601.8809" gradientTransform="matrix(4.540295e-005 -1 -1 1.000000e-003 722.0403 -1406.1389)">
				<stop  offset="0" style="stop-color:#000000"/>
				<stop  offset="1" style="stop-color:#4F504F"/>
			</linearGradient>
			<path fill="url(#SVGID_3_)" d="M112.24,113.54c2.17-2.17,4.8-3.25,7.9-3.25c3.1,0,5.72,1.08,7.85,3.25
				c2.13,2.1,3.2,4.72,3.2,7.85c0,3.07-1.07,5.68-3.2,7.85c-2.13,2.1-4.75,3.15-7.85,3.15c-3.1,0-5.73-1.05-7.9-3.15
				c-2.17-2.17-3.25-4.78-3.25-7.85C108.99,118.26,110.07,115.65,112.24,113.54z"/>
		</g>
		<g>
			<g>
				
					<linearGradient id="SVGID_4_" gradientUnits="userSpaceOnUse" x1="-919.3887" y1="361.4277" x2="-905.6242" y2="361.4277" gradientTransform="matrix(0.7628 -0.6466 -0.6466 -0.7628 1005.0365 -219.0126)">
					<stop  offset="0" style="stop-color:#B7B7B7"/>
					<stop  offset="0.2667" style="stop-color:#C9C9C9"/>
					<stop  offset="0.502" style="stop-color:#EBEBEB"/>
					<stop  offset="0.7098" style="stop-color:#C5C5C5"/>
					<stop  offset="1" style="stop-color:#ADADAD"/>
				</linearGradient>
				<path fill="url(#SVGID_4_)" d="M82.64,98.04c-1.33,1.33-2.95,2-4.85,2c-1.87,0-3.48-0.67-4.85-2c-1.33-1.37-2-2.98-2-4.85
					c0-1.9,0.67-3.52,2-4.85c1.37-1.37,2.98-2.05,4.85-2.05c1.9,0,3.52,0.68,4.85,2.05c1.37,1.33,2.05,2.95,2.05,4.85
					C84.69,95.06,84.01,96.68,82.64,98.04z"/>
			</g>
			<g>
				
					<radialGradient id="SVGID_5_" cx="-1502.4766" cy="1011.6553" r="7.9125" gradientTransform="matrix(6.319115e-005 -1 1 -6.319115e-005 -929.2184 -1404.968)" gradientUnits="userSpaceOnUse">
					<stop  offset="0" style="stop-color:#FFFFFF"/>
					<stop  offset="0.3333" style="stop-color:#FEFEFE;stop-opacity:0.7961"/>
					<stop  offset="1" style="stop-color:#F6F6F6;stop-opacity:0"/>
				</radialGradient>
				<path fill="url(#SVGID_5_)" d="M83.79,91.04c0.33,0.7,0.5,1.48,0.5,2.35c0,1.7-0.65,3.18-1.95,4.45
					c-1.27,1.23-2.78,1.85-4.55,1.85c-1.73,0-3.22-0.58-4.45-1.75l-0.5-0.5l1-1.05l0.55,0.5c0.93,0.9,2.07,1.35,3.4,1.35
					c1.37,0,2.53-0.5,3.5-1.5c1-0.93,1.5-2.05,1.5-3.35c0-0.63-0.12-1.25-0.35-1.85l-0.3-0.75l1.4-0.5L83.79,91.04z"/>
			</g>
		</g>
		<g>
			<g>
				
					<linearGradient id="SVGID_6_" gradientUnits="userSpaceOnUse" x1="-956.5679" y1="317.6152" x2="-942.8018" y2="317.6152" gradientTransform="matrix(0.7628 -0.6466 -0.6466 -0.7628 1005.0365 -219.0126)">
					<stop  offset="0" style="stop-color:#B7B7B7"/>
					<stop  offset="0.2667" style="stop-color:#C9C9C9"/>
					<stop  offset="0.502" style="stop-color:#EBEBEB"/>
					<stop  offset="0.7098" style="stop-color:#C5C5C5"/>
					<stop  offset="1" style="stop-color:#ADADAD"/>
				</linearGradient>
				<path fill="url(#SVGID_6_)" d="M77.79,143.69c1.9,0,3.52,0.68,4.85,2.05c1.37,1.33,2.05,2.95,2.05,4.85
					c0,1.93-0.68,3.57-2.05,4.9c-1.33,1.37-2.95,2.05-4.85,2.05c-1.87,0-3.48-0.68-4.85-2.05c-1.33-1.33-2-2.97-2-4.9
					c0-1.9,0.67-3.52,2-4.85C74.31,144.38,75.92,143.69,77.79,143.69z"/>
			</g>
			<g>
				
					<radialGradient id="SVGID_7_" cx="-1559.9263" cy="1011.6504" r="7.9129" gradientTransform="matrix(6.319115e-005 -1 1 -6.319115e-005 -929.2106 -1404.968)" gradientUnits="userSpaceOnUse">
					<stop  offset="0" style="stop-color:#FFFFFF"/>
					<stop  offset="0.3333" style="stop-color:#FEFEFE;stop-opacity:0.7961"/>
					<stop  offset="1" style="stop-color:#F6F6F6;stop-opacity:0"/>
				</radialGradient>
				<path fill="url(#SVGID_7_)" d="M82.44,148.9l-0.3-0.65l1.4-0.55l0.25,0.65c0.33,0.77,0.5,1.55,0.5,2.35
					c0,1.8-0.65,3.33-1.95,4.6c-1.27,1.27-2.78,1.9-4.55,1.9c-1.73,0-3.22-0.58-4.45-1.75l-0.5-0.55l1-1.1l0.55,0.55
					c0.93,0.9,2.07,1.35,3.4,1.35c1.37,0,2.53-0.48,3.5-1.45c1-0.97,1.5-2.15,1.5-3.55C82.79,150.13,82.67,149.53,82.44,148.9z"/>
			</g>
		</g>
		<g>
			<g>
				
					<linearGradient id="SVGID_8_" gradientUnits="userSpaceOnUse" x1="-906.623" y1="312.4932" x2="-890.2266" y2="312.4932" gradientTransform="matrix(0.7633 -0.646 -0.646 -0.7633 1004.8043 -217.9089)">
					<stop  offset="0" style="stop-color:#B7B7B7"/>
					<stop  offset="0.2667" style="stop-color:#C9C9C9"/>
					<stop  offset="0.502" style="stop-color:#EBEBEB"/>
					<stop  offset="0.7098" style="stop-color:#C5C5C5"/>
					<stop  offset="1" style="stop-color:#ADADAD"/>
				</linearGradient>
				<path fill="url(#SVGID_8_)" d="M120.34,113.04c2.23,0,4.17,0.82,5.8,2.45c1.6,1.6,2.4,3.53,2.4,5.8s-0.8,4.18-2.4,5.75
					c-1.63,1.63-3.57,2.45-5.8,2.45c-2.27,0-4.2-0.82-5.8-2.45c-1.63-1.57-2.45-3.48-2.45-5.75s0.82-4.2,2.45-5.8
					C116.14,113.86,118.07,113.04,120.34,113.04z"/>
			</g>
			<g>
				
					<radialGradient id="SVGID_9_" cx="-1531.4238" cy="968.2529" r="9.4505" gradientTransform="matrix(5.291005e-005 -1 1 -5.291005e-005 -842.4294 -1404.9778)" gradientUnits="userSpaceOnUse">
					<stop  offset="0" style="stop-color:#FFFFFF"/>
					<stop  offset="0.3333" style="stop-color:#FEFEFE;stop-opacity:0.7961"/>
					<stop  offset="1" style="stop-color:#F6F6F6;stop-opacity:0"/>
				</radialGradient>
				<path fill="url(#SVGID_9_)" d="M125.74,126.94c-1.5,1.47-3.3,2.2-5.4,2.2c-2.07,0-3.85-0.7-5.35-2.1l-0.6-0.65l1.2-1.2l0.65,0.6
					c1.1,1.07,2.47,1.6,4.1,1.6c1.6,0,2.98-0.58,4.15-1.75c1.17-1.13,1.75-2.52,1.75-4.15c0-0.77-0.13-1.5-0.4-2.2l-0.35-0.8
					l1.65-0.65l0.4,0.8c0.37,0.9,0.55,1.85,0.55,2.85c0,2.1-0.78,3.88-2.35,5.35V126.94z"/>
			</g>
		</g>
	</g>
</g>
</svg>
