<?xml version="1.0" encoding="utf-8"?>
<!-- Generator: Adobe Illustrator 16.0.0, SVG Export Plug-In . SVG Version: 6.00 Build 0)  -->
<!DOCTYPE svg PUBLIC "-//W3C//DTD SVG 1.1//EN" "http://www.w3.org/Graphics/SVG/1.1/DTD/svg11.dtd">
<svg version="1.1" xmlns="http://www.w3.org/2000/svg" xmlns:xlink="http://www.w3.org/1999/xlink" x="0px" y="0px"
	 width="181.81px" height="177.5px" viewBox="0 0 181.81 177.5" enable-background="new 0 0 181.81 177.5" xml:space="preserve">
<g id="Layer_1">
	<g>
		<path fill="#999999" d="M147.78,146.88c15.55-15.56,23.33-34.34,23.32-56.33c0-22.01-7.77-40.8-23.32-56.35
			c-15.56-15.53-34.34-23.3-56.33-23.3c-22.01,0-40.79,7.76-56.35,23.27l-0.02,0.03C19.56,49.76,11.8,68.54,11.8,90.55
			c0,21.99,7.77,40.76,23.3,56.33c15.55,15.55,34.34,23.33,56.35,23.33C113.44,170.2,132.21,162.43,147.78,146.88z M150.22,31.7
			l0.03,0.02c16.24,16.24,24.35,35.85,24.35,58.82c0,22.95-8.11,42.55-24.35,58.8C134,165.59,114.4,173.7,91.45,173.7
			c-22.98,0-42.59-8.11-58.83-24.35l-0.02-0.02C16.4,133.09,8.3,113.5,8.3,90.55c0-22.98,8.1-42.59,24.3-58.82l0.02-0.02
			C48.86,15.5,68.47,7.4,91.45,7.4C114.4,7.4,133.99,15.5,150.22,31.7z"/>
		<g>
			<path fill="#FFFFFF" d="M91.65,165.05c0.1,0.1,0.15,0.21,0.15,0.35v3c0,0.14-0.05,0.25-0.15,0.35c-0.1,0.1-0.21,0.15-0.35,0.15
				c-0.14,0-0.25-0.05-0.35-0.15s-0.15-0.21-0.15-0.35v-3c0-0.14,0.05-0.25,0.15-0.35c0.1-0.1,0.21-0.15,0.35-0.15
				C91.44,164.9,91.55,164.95,91.65,165.05z M90.8,160.4v-3c0-0.14,0.05-0.25,0.15-0.35c0.1-0.1,0.21-0.15,0.35-0.15
				c0.14,0,0.25,0.05,0.35,0.15c0.1,0.1,0.15,0.21,0.15,0.35v3c0,0.14-0.05,0.25-0.15,0.35c-0.1,0.1-0.21,0.15-0.35,0.15
				c-0.14,0-0.25-0.05-0.35-0.15S90.8,160.54,90.8,160.4z M91.65,152.75c-0.1,0.1-0.21,0.15-0.35,0.15c-0.14,0-0.25-0.05-0.35-0.15
				s-0.15-0.21-0.15-0.35v-3c0-0.14,0.05-0.25,0.15-0.35c0.1-0.1,0.21-0.15,0.35-0.15c0.14,0,0.25,0.05,0.35,0.15
				c0.1,0.1,0.15,0.21,0.15,0.35v3C91.8,152.54,91.75,152.65,91.65,152.75z M90.95,141.05c0.1-0.1,0.21-0.15,0.35-0.15
				c0.14,0,0.25,0.05,0.35,0.15c0.1,0.1,0.15,0.21,0.15,0.35v3c0,0.14-0.05,0.25-0.15,0.35c-0.1,0.1-0.21,0.15-0.35,0.15
				c-0.14,0-0.25-0.05-0.35-0.15s-0.15-0.21-0.15-0.35v-3C90.8,141.26,90.85,141.15,90.95,141.05z M91.65,133.05
				c0.1,0.1,0.15,0.21,0.15,0.35v3c0,0.14-0.05,0.25-0.15,0.35c-0.1,0.1-0.21,0.15-0.35,0.15c-0.14,0-0.25-0.05-0.35-0.15
				s-0.15-0.21-0.15-0.35v-3c0-0.14,0.05-0.25,0.15-0.35c0.1-0.1,0.21-0.15,0.35-0.15C91.44,132.9,91.55,132.95,91.65,133.05z
				 M90.95,125.05c0.1-0.1,0.21-0.15,0.35-0.15c0.14,0,0.25,0.05,0.35,0.15c0.1,0.1,0.15,0.21,0.15,0.35v3
				c0,0.14-0.05,0.25-0.15,0.35c-0.1,0.1-0.21,0.15-0.35,0.15c-0.14,0-0.25-0.05-0.35-0.15s-0.15-0.21-0.15-0.35v-3
				C90.8,125.26,90.85,125.15,90.95,125.05z M91.3,116.9c0.14,0,0.25,0.05,0.35,0.15c0.1,0.1,0.15,0.21,0.15,0.35v3
				c0,0.14-0.05,0.25-0.15,0.35c-0.1,0.1-0.21,0.15-0.35,0.15c-0.14,0-0.25-0.05-0.35-0.15s-0.15-0.21-0.15-0.35v-3
				c0-0.14,0.05-0.25,0.15-0.35C91.05,116.95,91.16,116.9,91.3,116.9z M91.65,109.05c0.1,0.1,0.15,0.21,0.15,0.35v3
				c0,0.14-0.05,0.25-0.15,0.35c-0.1,0.1-0.21,0.15-0.35,0.15c-0.14,0-0.25-0.05-0.35-0.15s-0.15-0.21-0.15-0.35v-3
				c0-0.14,0.05-0.25,0.15-0.35c0.1-0.1,0.21-0.15,0.35-0.15C91.44,108.9,91.55,108.95,91.65,109.05z M91.65,101.05
				c0.1,0.1,0.15,0.21,0.15,0.35v3c0,0.14-0.05,0.25-0.15,0.35c-0.1,0.1-0.21,0.15-0.35,0.15c-0.14,0-0.25-0.05-0.35-0.15
				s-0.15-0.21-0.15-0.35v-3c0-0.14,0.05-0.25,0.15-0.35c0.1-0.1,0.21-0.15,0.35-0.15C91.44,100.9,91.55,100.95,91.65,101.05z
				 M90.8,96.4v-3c0-0.14,0.05-0.25,0.15-0.35c0.1-0.1,0.21-0.15,0.35-0.15c0.14,0,0.25,0.05,0.35,0.15c0.1,0.1,0.15,0.21,0.15,0.35
				v3c0,0.14-0.05,0.25-0.15,0.35c-0.1,0.1-0.21,0.15-0.35,0.15c-0.14,0-0.25-0.05-0.35-0.15S90.8,96.54,90.8,96.4z M90.95,85.05
				c0.1-0.1,0.21-0.15,0.35-0.15c0.14,0,0.25,0.05,0.35,0.15c0.1,0.1,0.15,0.21,0.15,0.35v3c0,0.14-0.05,0.25-0.15,0.35
				c-0.1,0.1-0.21,0.15-0.35,0.15c-0.14,0-0.25-0.05-0.35-0.15s-0.15-0.21-0.15-0.35v-3C90.8,85.26,90.85,85.15,90.95,85.05z
				 M91.65,77.05c0.1,0.1,0.15,0.21,0.15,0.35v3c0,0.14-0.05,0.25-0.15,0.35c-0.1,0.1-0.21,0.15-0.35,0.15
				c-0.14,0-0.25-0.05-0.35-0.15s-0.15-0.21-0.15-0.35v-3c0-0.14,0.05-0.25,0.15-0.35c0.1-0.1,0.21-0.15,0.35-0.15
				C91.44,76.9,91.55,76.95,91.65,77.05z M90.8,72.4v-3c0-0.14,0.05-0.25,0.15-0.35c0.1-0.1,0.21-0.15,0.35-0.15
				c0.14,0,0.25,0.05,0.35,0.15c0.1,0.1,0.15,0.21,0.15,0.35v3c0,0.14-0.05,0.25-0.15,0.35c-0.1,0.1-0.21,0.15-0.35,0.15
				c-0.14,0-0.25-0.05-0.35-0.15S90.8,72.54,90.8,72.4z M91.65,61.05c0.1,0.1,0.15,0.21,0.15,0.35v3c0,0.14-0.05,0.25-0.15,0.35
				c-0.1,0.1-0.21,0.15-0.35,0.15c-0.14,0-0.25-0.05-0.35-0.15s-0.15-0.21-0.15-0.35v-3c0-0.14,0.05-0.25,0.15-0.35
				c0.1-0.1,0.21-0.15,0.35-0.15C91.44,60.9,91.55,60.95,91.65,61.05z M90.95,53.05c0.1-0.1,0.21-0.15,0.35-0.15
				c0.14,0,0.25,0.05,0.35,0.15c0.1,0.1,0.15,0.21,0.15,0.35v3c0,0.14-0.05,0.25-0.15,0.35c-0.1,0.1-0.21,0.15-0.35,0.15
				c-0.14,0-0.25-0.05-0.35-0.15s-0.15-0.21-0.15-0.35v-3C90.8,53.26,90.85,53.15,90.95,53.05z M90.8,48.4v-3
				c0-0.14,0.05-0.25,0.15-0.35c0.1-0.1,0.21-0.15,0.35-0.15c0.14,0,0.25,0.05,0.35,0.15c0.1,0.1,0.15,0.21,0.15,0.35v3
				c0,0.14-0.05,0.25-0.15,0.35c-0.1,0.1-0.21,0.15-0.35,0.15c-0.14,0-0.25-0.05-0.35-0.15S90.8,48.54,90.8,48.4z M90.95,37.05
				c0.1-0.1,0.21-0.15,0.35-0.15c0.14,0,0.25,0.05,0.35,0.15c0.1,0.1,0.15,0.21,0.15,0.35v3c0,0.14-0.05,0.25-0.15,0.35
				c-0.1,0.1-0.21,0.15-0.35,0.15c-0.14,0-0.25-0.05-0.35-0.15s-0.15-0.21-0.15-0.35v-3C90.8,37.26,90.85,37.15,90.95,37.05z
				 M91.65,29.05c0.1,0.1,0.15,0.21,0.15,0.35v3c0,0.14-0.05,0.25-0.15,0.35c-0.1,0.1-0.21,0.15-0.35,0.15
				c-0.14,0-0.25-0.05-0.35-0.15s-0.15-0.21-0.15-0.35v-3c0-0.14,0.05-0.25,0.15-0.35c0.1-0.1,0.21-0.15,0.35-0.15
				C91.44,28.9,91.55,28.95,91.65,29.05z M90.8,24.4v-3c0-0.14,0.05-0.25,0.15-0.35c0.1-0.1,0.21-0.15,0.35-0.15
				c0.14,0,0.25,0.05,0.35,0.15c0.1,0.1,0.15,0.21,0.15,0.35v3c0,0.14-0.05,0.25-0.15,0.35c-0.1,0.1-0.21,0.15-0.35,0.15
				c-0.14,0-0.25-0.05-0.35-0.15S90.8,24.54,90.8,24.4z M90.95,13.05c0.1-0.1,0.21-0.15,0.35-0.15c0.14,0,0.25,0.05,0.35,0.15
				c0.1,0.1,0.15,0.21,0.15,0.35v3c0,0.14-0.05,0.25-0.15,0.35c-0.1,0.1-0.21,0.15-0.35,0.15c-0.14,0-0.25-0.05-0.35-0.15
				s-0.15-0.21-0.15-0.35v-3C90.8,13.26,90.85,13.15,90.95,13.05z"/>
		</g>
	</g>
</g>
<g id="Layer_3">
	<g>
		<path fill="#FFFFFF" d="M32.65,88.25c0.14,0,0.25,0.05,0.35,0.15c0.1,0.1,0.15,0.21,0.15,0.35S33.1,89,33,89.1
			c-0.1,0.1-0.21,0.15-0.35,0.15h-3c-0.14,0-0.25-0.05-0.35-0.15c-0.1-0.1-0.15-0.21-0.15-0.35s0.05-0.25,0.15-0.35
			c0.1-0.1,0.21-0.15,0.35-0.15H32.65z M25,88.4c0.1,0.1,0.15,0.21,0.15,0.35S25.1,89,25,89.1c-0.1,0.1-0.21,0.15-0.35,0.15h-3
			c-0.14,0-0.25-0.05-0.35-0.15c-0.1-0.1-0.15-0.21-0.15-0.35s0.05-0.25,0.15-0.35c0.1-0.1,0.21-0.15,0.35-0.15h3
			C24.79,88.25,24.9,88.3,25,88.4z M56.65,88.25c0.14,0,0.25,0.05,0.35,0.15c0.1,0.1,0.15,0.21,0.15,0.35S57.1,89,57,89.1
			c-0.1,0.1-0.21,0.15-0.35,0.15h-3c-0.14,0-0.25-0.05-0.35-0.15c-0.1-0.1-0.15-0.21-0.15-0.35s0.05-0.25,0.15-0.35
			c0.1-0.1,0.21-0.15,0.35-0.15H56.65z M40.65,88.25c0.14,0,0.25,0.05,0.35,0.15c0.1,0.1,0.15,0.21,0.15,0.35S41.1,89,41,89.1
			c-0.1,0.1-0.21,0.15-0.35,0.15h-3c-0.14,0-0.25-0.05-0.35-0.15c-0.1-0.1-0.15-0.21-0.15-0.35s0.05-0.25,0.15-0.35
			c0.1-0.1,0.21-0.15,0.35-0.15H40.65z M45.3,88.4c0.1-0.1,0.21-0.15,0.35-0.15h3c0.14,0,0.25,0.05,0.35,0.15
			c0.1,0.1,0.15,0.21,0.15,0.35S49.1,89,49,89.1c-0.1,0.1-0.21,0.15-0.35,0.15h-3c-0.14,0-0.25-0.05-0.35-0.15
			c-0.1-0.1-0.15-0.21-0.15-0.35S45.2,88.5,45.3,88.4z M73.15,88.75c0,0.14-0.05,0.25-0.15,0.35c-0.1,0.1-0.21,0.15-0.35,0.15h-3
			c-0.14,0-0.25-0.05-0.35-0.15c-0.1-0.1-0.15-0.21-0.15-0.35s0.05-0.25,0.15-0.35c0.1-0.1,0.21-0.15,0.35-0.15h3
			c0.14,0,0.25,0.05,0.35,0.15C73.1,88.5,73.15,88.61,73.15,88.75z M65,88.4c0.1,0.1,0.15,0.21,0.15,0.35S65.1,89,65,89.1
			c-0.1,0.1-0.21,0.15-0.35,0.15h-3c-0.14,0-0.25-0.05-0.35-0.15c-0.1-0.1-0.15-0.21-0.15-0.35s0.05-0.25,0.15-0.35
			c0.1-0.1,0.21-0.15,0.35-0.15h3C64.79,88.25,64.9,88.3,65,88.4z M96.65,88.25c0.14,0,0.25,0.05,0.35,0.15
			c0.1,0.1,0.15,0.21,0.15,0.35S97.1,89,97,89.1c-0.1,0.1-0.21,0.15-0.35,0.15h-3c-0.14,0-0.25-0.05-0.35-0.15
			c-0.1-0.1-0.15-0.21-0.15-0.35s0.05-0.25,0.15-0.35c0.1-0.1,0.21-0.15,0.35-0.15H96.65z M81,88.4c0.1,0.1,0.15,0.21,0.15,0.35
			S81.1,89,81,89.1c-0.1,0.1-0.21,0.15-0.35,0.15h-3c-0.14,0-0.25-0.05-0.35-0.15c-0.1-0.1-0.15-0.21-0.15-0.35s0.05-0.25,0.15-0.35
			c0.1-0.1,0.21-0.15,0.35-0.15h3C80.79,88.25,80.9,88.3,81,88.4z M85.3,88.4c0.1-0.1,0.21-0.15,0.35-0.15h3
			c0.14,0,0.25,0.05,0.35,0.15c0.1,0.1,0.15,0.21,0.15,0.35S89.1,89,89,89.1c-0.1,0.1-0.21,0.15-0.35,0.15h-3
			c-0.14,0-0.25-0.05-0.35-0.15c-0.1-0.1-0.15-0.21-0.15-0.35S85.2,88.5,85.3,88.4z M13.65,89.25c-0.14,0-0.25-0.05-0.35-0.15
			c-0.1-0.1-0.15-0.21-0.15-0.35s0.05-0.25,0.15-0.35c0.1-0.1,0.21-0.15,0.35-0.15h3c0.14,0,0.25,0.05,0.35,0.15
			c0.1,0.1,0.15,0.21,0.15,0.35S17.1,89,17,89.1c-0.1,0.1-0.21,0.15-0.35,0.15H13.65z M112.65,88.25c0.14,0,0.25,0.05,0.35,0.15
			c0.1,0.1,0.15,0.21,0.15,0.35S113.1,89,113,89.1c-0.1,0.1-0.21,0.15-0.35,0.15h-3c-0.14,0-0.25-0.05-0.35-0.15
			c-0.1-0.1-0.15-0.21-0.15-0.35s0.05-0.25,0.15-0.35c0.1-0.1,0.21-0.15,0.35-0.15H112.65z M105,88.4c0.1,0.1,0.15,0.21,0.15,0.35
			S105.1,89,105,89.1c-0.1,0.1-0.21,0.15-0.35,0.15h-3c-0.14,0-0.25-0.05-0.35-0.15c-0.1-0.1-0.15-0.21-0.15-0.35
			s0.05-0.25,0.15-0.35c0.1-0.1,0.21-0.15,0.35-0.15h3C104.79,88.25,104.9,88.3,105,88.4z M137,88.4c0.1,0.1,0.15,0.21,0.15,0.35
			S137.1,89,137,89.1c-0.1,0.1-0.21,0.15-0.35,0.15h-3c-0.14,0-0.25-0.05-0.35-0.15c-0.1-0.1-0.15-0.21-0.15-0.35
			s0.05-0.25,0.15-0.35c0.1-0.1,0.21-0.15,0.35-0.15h3C136.79,88.25,136.9,88.3,137,88.4z M121,88.4c0.1,0.1,0.15,0.21,0.15,0.35
			S121.1,89,121,89.1c-0.1,0.1-0.21,0.15-0.35,0.15h-3c-0.14,0-0.25-0.05-0.35-0.15c-0.1-0.1-0.15-0.21-0.15-0.35
			s0.05-0.25,0.15-0.35c0.1-0.1,0.21-0.15,0.35-0.15h3C120.79,88.25,120.9,88.3,121,88.4z M125.3,88.4c0.1-0.1,0.21-0.15,0.35-0.15
			h3c0.14,0,0.25,0.05,0.35,0.15c0.1,0.1,0.15,0.21,0.15,0.35S129.1,89,129,89.1c-0.1,0.1-0.21,0.15-0.35,0.15h-3
			c-0.14,0-0.25-0.05-0.35-0.15c-0.1-0.1-0.15-0.21-0.15-0.35S125.2,88.5,125.3,88.4z M152.65,88.25c0.14,0,0.25,0.05,0.35,0.15
			c0.1,0.1,0.15,0.21,0.15,0.35S153.1,89,153,89.1c-0.1,0.1-0.21,0.15-0.35,0.15h-3c-0.14,0-0.25-0.05-0.35-0.15
			c-0.1-0.1-0.15-0.21-0.15-0.35s0.05-0.25,0.15-0.35c0.1-0.1,0.21-0.15,0.35-0.15H152.65z M145,88.4c0.1,0.1,0.15,0.21,0.15,0.35
			S145.1,89,145,89.1c-0.1,0.1-0.21,0.15-0.35,0.15h-3c-0.14,0-0.25-0.05-0.35-0.15c-0.1-0.1-0.15-0.21-0.15-0.35
			s0.05-0.25,0.15-0.35c0.1-0.1,0.21-0.15,0.35-0.15h3C144.79,88.25,144.9,88.3,145,88.4z M160.65,88.25c0.14,0,0.25,0.05,0.35,0.15
			c0.1,0.1,0.15,0.21,0.15,0.35S161.1,89,161,89.1c-0.1,0.1-0.21,0.15-0.35,0.15h-3c-0.14,0-0.25-0.05-0.35-0.15
			c-0.1-0.1-0.15-0.21-0.15-0.35s0.05-0.25,0.15-0.35c0.1-0.1,0.21-0.15,0.35-0.15H160.65z M165.65,88.25h3
			c0.14,0,0.25,0.05,0.35,0.15c0.1,0.1,0.15,0.21,0.15,0.35S169.1,89,169,89.1c-0.1,0.1-0.21,0.15-0.35,0.15h-3
			c-0.14,0-0.25-0.05-0.35-0.15c-0.1-0.1-0.15-0.21-0.15-0.35s0.05-0.25,0.15-0.35C165.4,88.3,165.51,88.25,165.65,88.25z"/>
	</g>
</g>
</svg>
