<?xml version="1.0" encoding="utf-8"?>
<!-- Generator: Adobe Illustrator 16.0.0, SVG Export Plug-In . SVG Version: 6.00 Build 0)  -->
<!DOCTYPE svg PUBLIC "-//W3C//DTD SVG 1.1//EN" "http://www.w3.org/Graphics/SVG/1.1/DTD/svg11.dtd">
<svg version="1.1" id="Layer_2" xmlns="http://www.w3.org/2000/svg" xmlns:xlink="http://www.w3.org/1999/xlink" x="0px" y="0px"
	 width="239px" height="239px" viewBox="249 0 239 239" enable-background="new 249 0 239 239" xml:space="preserve">
<g>
	<g>
		<g>
			
				<radialGradient id="SVGID_1_" cx="-858.9448" cy="503.918" r="36.0611" gradientTransform="matrix(-0.0229 -0.9997 -1.5213 0.0348 1090.88 -753.7695)" gradientUnits="userSpaceOnUse">
				<stop  offset="0" style="stop-color:#FFFFFF"/>
				<stop  offset="0.4275" style="stop-color:#FFFFFF;stop-opacity:0.8706"/>
				<stop  offset="1" style="stop-color:#FFFFFF;stop-opacity:0"/>
			</radialGradient>
			<polygon fill="url(#SVGID_1_)" points="425.09,124 358.24,161.09 330.49,161.75 330.34,156.34 402.09,119.4 328.59,84.79 
				328.44,80.14 424.74,109.29 			"/>
		</g>
		<g>
			<polygon fill="#72776F" points="325.99,86.64 327.64,155.4 326.19,154.69 324.54,87.39 325.89,86.59 			"/>
			
				<linearGradient id="SVGID_2_" gradientUnits="userSpaceOnUse" x1="-119.1465" y1="477.2783" x2="-120.7279" y2="546.0404" gradientTransform="matrix(1 0 0 -1 482 632)">
				<stop  offset="0" style="stop-color:#9C9794"/>
				<stop  offset="0.4235" style="stop-color:#B1B9AE;stop-opacity:0.498"/>
				<stop  offset="0.6902" style="stop-color:#D8DAD1;stop-opacity:0.8431"/>
				<stop  offset="1" style="stop-color:#FFFFFF;stop-opacity:0.9725"/>
			</linearGradient>
			<polygon fill="url(#SVGID_2_)" points="327.64,155.4 325.99,86.64 397.34,119.5 			"/>
			<path fill="none" d="M325.99,86.64l71.35,32.85l-69.7,35.9 M325.99,86.64l1.65,68.75"/>
		</g>
		<g>
			
				<radialGradient id="SVGID_3_" cx="-840.7012" cy="511.1416" r="34.0343" gradientTransform="matrix(-0.023 -0.9997 -1.6515 0.038 1187.0475 -722.4304)" gradientUnits="userSpaceOnUse">
				<stop  offset="0" style="stop-color:#FFFFFF;stop-opacity:0.4431"/>
				<stop  offset="0.7137" style="stop-color:#FAFAFA;stop-opacity:0.298"/>
				<stop  offset="1" style="stop-color:#F9F9F9;stop-opacity:0"/>
			</radialGradient>
			<path fill="url(#SVGID_3_)" d="M396.74,119.59l0.3,0.15c0,0.03,0.1,0.03,0.3,0l-68.25,35.2c-0.07,0.03-0.17,0.03-0.3,0
				c-0.03,0-0.1-0.05-0.2-0.15c-0.03,0-0.03-0.05,0-0.15h0.15L396.74,119.59z"/>
			
				<radialGradient id="SVGID_4_" cx="-876.1621" cy="527.6338" r="33.9168" gradientTransform="matrix(-0.0228 -0.9997 -1.6528 0.0377 1178.7837 -774.6742)" gradientUnits="userSpaceOnUse">
				<stop  offset="0" style="stop-color:#FFFFFF"/>
				<stop  offset="0.8549" style="stop-color:#FAFAFA"/>
				<stop  offset="1" style="stop-color:#F9F9F9;stop-opacity:0"/>
			</radialGradient>
			<path fill="url(#SVGID_4_)" d="M326.09,87.04c0.07,0.1,0.1,0.18,0.1,0.25l1.65,67.7c0,0.03-0.03,0.08-0.1,0.15
				c-0.1,0.07-0.2,0.07-0.3,0c-0.03,0.03-0.1,0.03-0.2,0c-0.03,0-0.03-0.04,0-0.1l-1.7-67.75c-0.03,0-0.03-0.05,0-0.15
				c0.1-0.07,0.2-0.1,0.3-0.1C325.88,87.04,325.96,87.04,326.09,87.04z"/>
		</g>
		<g>
			
				<radialGradient id="SVGID_5_" cx="184.8291" cy="-1270.9648" r="33.0485" gradientTransform="matrix(0.9104 0.4138 0.0276 -0.0223 232.8585 1.5787)" gradientUnits="userSpaceOnUse">
				<stop  offset="0" style="stop-color:#FFFFFF"/>
				<stop  offset="0.1765" style="stop-color:#FFFFFF"/>
				<stop  offset="0.3059" style="stop-color:#FFFFFF;stop-opacity:0.4235"/>
				<stop  offset="0.4902" style="stop-color:#FFFFFF;stop-opacity:0.2314"/>
				<stop  offset="0.651" style="stop-color:#FFFFFF;stop-opacity:0.0824"/>
				<stop  offset="1" style="stop-color:#FFFFFF;stop-opacity:0"/>
			</radialGradient>
			<path fill="url(#SVGID_5_)" d="M395.64,119.5c0.3,0.27,0.42,0.42,0.35,0.45c-0.1,0.1-0.37,0.05-0.8-0.15
				c-1.47-0.4-4.4-1.52-8.8-3.35c-6.13-2.57-13.21-5.68-21.25-9.35c-8.07-3.7-14.97-6.97-20.7-9.8c-5.37-2.63-7.95-4.07-7.75-4.3
				c0.3-0.13,3.28,0.98,8.95,3.35c6.1,2.53,13.2,5.63,21.3,9.3c8.03,3.7,14.95,6.97,20.75,9.8
				C391.86,117.51,394.51,118.86,395.64,119.5z"/>
			
				<radialGradient id="SVGID_6_" cx="-1958.9692" cy="1220.5898" r="0.7036" gradientTransform="matrix(-0.8348 -0.5506 -2.9128 1.7051 2315.6572 -3039.6274)" gradientUnits="userSpaceOnUse">
				<stop  offset="0" style="stop-color:#FFFFFF"/>
				<stop  offset="0.1765" style="stop-color:#FFFFFF"/>
				<stop  offset="0.3059" style="stop-color:#FFFFFF;stop-opacity:0.4235"/>
				<stop  offset="0.4902" style="stop-color:#FFFFFF;stop-opacity:0.2314"/>
				<stop  offset="0.651" style="stop-color:#FFFFFF;stop-opacity:0.0824"/>
				<stop  offset="1" style="stop-color:#FFFFFF;stop-opacity:0"/>
			</radialGradient>
			<path fill="url(#SVGID_6_)" d="M395.19,119.79c0.43,0.2,0.7,0.25,0.8,0.15c0.07-0.03-0.05-0.18-0.35-0.45
				c0.3-0.2,0.63-0.37,1-0.5c0.54-0.03,0.87-0.03,1,0c0.2,0.13,0.13,0.33-0.2,0.6c-0.2,0.33-0.6,0.63-1.2,0.9
				c-0.57,0.3-1.13,0.55-1.7,0.75c-0.47,0.2-0.8,0.23-1,0.1c-0.13-0.13-0.03-0.35,0.3-0.65c0.27-0.27,0.67-0.53,1.2-0.8
				L395.19,119.79z"/>
			
				<radialGradient id="SVGID_7_" cx="-976.1934" cy="-18560.1191" r="34.5635" gradientTransform="matrix(0.8907 -0.4546 -0.021 -0.0152 837.333 -586.5353)" gradientUnits="userSpaceOnUse">
				<stop  offset="0" style="stop-color:#FFFFFF"/>
				<stop  offset="0.1765" style="stop-color:#FFFFFF"/>
				<stop  offset="0.3059" style="stop-color:#FFFFFF;stop-opacity:0.4235"/>
				<stop  offset="0.4902" style="stop-color:#FFFFFF;stop-opacity:0.2314"/>
				<stop  offset="0.651" style="stop-color:#FFFFFF;stop-opacity:0.0824"/>
				<stop  offset="1" style="stop-color:#FFFFFF;stop-opacity:0"/>
			</radialGradient>
			<path fill="url(#SVGID_7_)" d="M358.29,139.84c-8.3,4.27-15.53,7.88-21.7,10.85c-5.83,2.73-8.83,4.03-9,3.9
				c-0.13-0.13,2.52-1.68,7.95-4.65c5.93-3.2,13.03-6.92,21.3-11.15c8.33-4.2,15.58-7.78,21.75-10.75c6.23-3,9.47-4.43,9.7-4.3
				c0.13,0.13-2.77,1.78-8.7,4.95C373.72,131.9,366.63,135.61,358.29,139.84z"/>
			
				<radialGradient id="SVGID_8_" cx="-878.8394" cy="-694.0723" r="4.9022" gradientTransform="matrix(-0.0275 -0.9996 -0.283 7.796302e-003 105.4487 -780.1305)" gradientUnits="userSpaceOnUse">
				<stop  offset="0" style="stop-color:#FFFFFF"/>
				<stop  offset="0.1765" style="stop-color:#FFFFFF"/>
				<stop  offset="0.3059" style="stop-color:#FFFFFF;stop-opacity:0.4235"/>
				<stop  offset="0.4902" style="stop-color:#FFFFFF;stop-opacity:0.2314"/>
				<stop  offset="0.651" style="stop-color:#FFFFFF;stop-opacity:0.0824"/>
				<stop  offset="1" style="stop-color:#FFFFFF;stop-opacity:0"/>
			</radialGradient>
			<path fill="url(#SVGID_8_)" d="M325.04,89.54c0.17-0.93,0.48-1.45,0.95-1.55c0.4,0,0.7,0.52,0.9,1.55
				c0.33,0.9,0.52,2.05,0.55,3.45c0.07,1.3-0.02,2.4-0.25,3.3c-0.23,0.93-0.57,1.38-1,1.35c-0.47,0.03-0.78-0.42-0.95-1.35
				c-0.27-0.9-0.43-2-0.5-3.3C324.71,91.66,324.81,90.51,325.04,89.54z"/>
		</g>
	</g>
</g>
</svg>
