<?xml version="1.0" encoding="utf-8"?>
<!-- Generator: Adobe Illustrator 16.0.0, SVG Export Plug-In . SVG Version: 6.00 Build 0)  -->
<!DOCTYPE svg PUBLIC "-//W3C//DTD SVG 1.1//EN" "http://www.w3.org/Graphics/SVG/1.1/DTD/svg11.dtd">
<svg version="1.1" id="Layer_2" xmlns="http://www.w3.org/2000/svg" xmlns:xlink="http://www.w3.org/1999/xlink" x="0px" y="0px"
	 width="1576px" height="1576px" viewBox="0 0 1576 1576" enable-background="new 0 0 1576 1576" xml:space="preserve">
<linearGradient id="SVGID_1_" gradientUnits="userSpaceOnUse" x1="518.9834" y1="1593.502" x2="518.9834" y2="1593.502" gradientTransform="matrix(1 0 0 -1 281.5 1768.5)">
	<stop  offset="0" style="stop-color:#D5E9F7"/>
	<stop  offset="0.1176" style="stop-color:#B0BDCC"/>
	<stop  offset="0.2902" style="stop-color:#B0C2D1"/>
	<stop  offset="0.4392" style="stop-color:#B4B2B7"/>
	<stop  offset="0.5804" style="stop-color:#DFCEBD"/>
	<stop  offset="0.7255" style="stop-color:#BCB2B1"/>
	<stop  offset="1" style="stop-color:#B4AAAB"/>
</linearGradient>
<path fill="url(#SVGID_1_)" stroke="#231F20" stroke-width="0.75" stroke-miterlimit="10" d="M800.48,175"/>
<linearGradient id="SVGID_2_" gradientUnits="userSpaceOnUse" x1="529.7363" y1="1593.2285" x2="529.7363" y2="1593.2285" gradientTransform="matrix(1 0 0 -1 281.5 1768.5)">
	<stop  offset="0" style="stop-color:#D5E9F7"/>
	<stop  offset="0.1176" style="stop-color:#B0BDCC"/>
	<stop  offset="0.2902" style="stop-color:#B0C2D1"/>
	<stop  offset="0.4392" style="stop-color:#B4B2B7"/>
	<stop  offset="0.5804" style="stop-color:#DFCEBD"/>
	<stop  offset="0.7255" style="stop-color:#BCB2B1"/>
	<stop  offset="1" style="stop-color:#B4AAAB"/>
</linearGradient>
<path fill="url(#SVGID_2_)" stroke="#231F20" stroke-width="0.75" stroke-miterlimit="10" d="M811.24,175.27"/>
<linearGradient id="SVGID_3_" gradientUnits="userSpaceOnUse" x1="540.4785" y1="1592.752" x2="540.4785" y2="1592.752" gradientTransform="matrix(1 0 0 -1 281.5 1768.5)">
	<stop  offset="0" style="stop-color:#D5E9F7"/>
	<stop  offset="0.1176" style="stop-color:#B0BDCC"/>
	<stop  offset="0.2902" style="stop-color:#B0C2D1"/>
	<stop  offset="0.4392" style="stop-color:#B4B2B7"/>
	<stop  offset="0.5804" style="stop-color:#DFCEBD"/>
	<stop  offset="0.7255" style="stop-color:#BCB2B1"/>
	<stop  offset="1" style="stop-color:#B4AAAB"/>
</linearGradient>
<path fill="url(#SVGID_3_)" stroke="#231F20" stroke-width="0.75" stroke-miterlimit="10" d="M821.98,175.75"/>
<linearGradient id="SVGID_4_" gradientUnits="userSpaceOnUse" x1="551.2178" y1="1592.1016" x2="551.2178" y2="1592.1016" gradientTransform="matrix(1 0 0 -1 281.5 1768.5)">
	<stop  offset="0" style="stop-color:#D5E9F7"/>
	<stop  offset="0.1176" style="stop-color:#B0BDCC"/>
	<stop  offset="0.2902" style="stop-color:#B0C2D1"/>
	<stop  offset="0.4392" style="stop-color:#B4B2B7"/>
	<stop  offset="0.5804" style="stop-color:#DFCEBD"/>
	<stop  offset="0.7255" style="stop-color:#BCB2B1"/>
	<stop  offset="1" style="stop-color:#B4AAAB"/>
</linearGradient>
<path fill="url(#SVGID_4_)" stroke="#231F20" stroke-width="0.75" stroke-miterlimit="10" d="M832.72,176.4"/>
<linearGradient id="SVGID_5_" gradientUnits="userSpaceOnUse" x1="572.6563" y1="1590.207" x2="572.6563" y2="1590.207" gradientTransform="matrix(1 0 0 -1 281.5 1768.5)">
	<stop  offset="0" style="stop-color:#D5E9F7"/>
	<stop  offset="0.1176" style="stop-color:#B0BDCC"/>
	<stop  offset="0.2902" style="stop-color:#B0C2D1"/>
	<stop  offset="0.4392" style="stop-color:#B4B2B7"/>
	<stop  offset="0.5804" style="stop-color:#DFCEBD"/>
	<stop  offset="0.7255" style="stop-color:#BCB2B1"/>
	<stop  offset="1" style="stop-color:#B4AAAB"/>
</linearGradient>
<path fill="url(#SVGID_5_)" stroke="#231F20" stroke-width="0.75" stroke-miterlimit="10" d="M854.16,178.29"/>
<linearGradient id="SVGID_6_" gradientUnits="userSpaceOnUse" x1="583.3389" y1="1588.9932" x2="583.3389" y2="1588.9932" gradientTransform="matrix(1 0 0 -1 281.5 1768.5)">
	<stop  offset="0" style="stop-color:#D5E9F7"/>
	<stop  offset="0.1176" style="stop-color:#B0BDCC"/>
	<stop  offset="0.2902" style="stop-color:#B0C2D1"/>
	<stop  offset="0.4392" style="stop-color:#B4B2B7"/>
	<stop  offset="0.5804" style="stop-color:#DFCEBD"/>
	<stop  offset="0.7255" style="stop-color:#BCB2B1"/>
	<stop  offset="1" style="stop-color:#B4AAAB"/>
</linearGradient>
<path fill="url(#SVGID_6_)" stroke="#231F20" stroke-width="0.75" stroke-miterlimit="10" d="M864.84,179.51"/>
<linearGradient id="SVGID_7_" gradientUnits="userSpaceOnUse" x1="594.0068" y1="1587.5898" x2="594.0068" y2="1587.5898" gradientTransform="matrix(1 0 0 -1 281.5 1768.5)">
	<stop  offset="0" style="stop-color:#D5E9F7"/>
	<stop  offset="0.1176" style="stop-color:#B0BDCC"/>
	<stop  offset="0.2902" style="stop-color:#B0C2D1"/>
	<stop  offset="0.4392" style="stop-color:#B4B2B7"/>
	<stop  offset="0.5804" style="stop-color:#DFCEBD"/>
	<stop  offset="0.7255" style="stop-color:#BCB2B1"/>
	<stop  offset="1" style="stop-color:#B4AAAB"/>
</linearGradient>
<path fill="url(#SVGID_7_)" stroke="#231F20" stroke-width="0.75" stroke-miterlimit="10" d="M875.51,180.91"/>
<linearGradient id="SVGID_8_" gradientUnits="userSpaceOnUse" x1="604.6455" y1="1585.9863" x2="604.6455" y2="1585.9863" gradientTransform="matrix(1 0 0 -1 281.5 1768.5)">
	<stop  offset="0" style="stop-color:#D5E9F7"/>
	<stop  offset="0.1176" style="stop-color:#B0BDCC"/>
	<stop  offset="0.2902" style="stop-color:#B0C2D1"/>
	<stop  offset="0.4392" style="stop-color:#B4B2B7"/>
	<stop  offset="0.5804" style="stop-color:#DFCEBD"/>
	<stop  offset="0.7255" style="stop-color:#BCB2B1"/>
	<stop  offset="1" style="stop-color:#B4AAAB"/>
</linearGradient>
<path fill="url(#SVGID_8_)" stroke="#231F20" stroke-width="0.75" stroke-miterlimit="10" d="M886.15,182.51"/>
<path fill="none" stroke="#231F20" stroke-width="0.75" stroke-miterlimit="10" d="M885.79,1400.1"/>
<path fill="none" stroke="#231F20" stroke-width="0.75" stroke-miterlimit="10" d="M875.15,1401.69"/>
<path fill="none" stroke="#231F20" stroke-width="0.75" stroke-miterlimit="10" d="M864.48,1403.09"/>
<path fill="none" stroke="#231F20" stroke-width="0.75" stroke-miterlimit="10" d="M853.78,1404.29"/>
<path fill="none" stroke="#231F20" stroke-width="0.75" stroke-miterlimit="10" d="M832.36,1406.17"/>
<path fill="none" stroke="#231F20" stroke-width="0.75" stroke-miterlimit="10" d="M821.62,1406.82"/>
<path fill="none" stroke="#231F20" stroke-width="0.75" stroke-miterlimit="10" d="M810.86,1407.28"/>
<path fill="none" stroke="#231F20" stroke-width="0.75" stroke-miterlimit="10" d="M800.11,1407.56"/>
<path fill="none" stroke="#231F20" stroke-width="0.75" stroke-miterlimit="10" d="M778.6,1407.54"/>
<path fill="none" stroke="#231F20" stroke-width="0.75" stroke-miterlimit="10" d="M767.84,1407.27"/>
<path fill="none" stroke="#231F20" stroke-width="0.75" stroke-miterlimit="10" d="M757.1,1406.79"/>
<path fill="none" stroke="#231F20" stroke-width="0.75" stroke-miterlimit="10" d="M746.36,1406.13"/>
<path fill="none" stroke="#231F20" stroke-width="0.75" stroke-miterlimit="10" d="M724.92,1404.25"/>
<path fill="none" stroke="#231F20" stroke-width="0.75" stroke-miterlimit="10" d="M714.24,1403.02"/>
<path fill="none" stroke="#231F20" stroke-width="0.75" stroke-miterlimit="10" d="M703.57,1401.62"/>
<path fill="none" stroke="#231F20" stroke-width="0.75" stroke-miterlimit="10" d="M692.93,1400.01"/>
<linearGradient id="SVGID_9_" gradientUnits="userSpaceOnUse" x1="411.8076" y1="1586.0439" x2="411.8076" y2="1586.0439" gradientTransform="matrix(1 0 0 -1 281.5 1768.5)">
	<stop  offset="0" style="stop-color:#D5E9F7"/>
	<stop  offset="0.1176" style="stop-color:#B0BDCC"/>
	<stop  offset="0.2902" style="stop-color:#B0C2D1"/>
	<stop  offset="0.4392" style="stop-color:#B4B2B7"/>
	<stop  offset="0.5804" style="stop-color:#DFCEBD"/>
	<stop  offset="0.7255" style="stop-color:#BCB2B1"/>
	<stop  offset="1" style="stop-color:#B4AAAB"/>
</linearGradient>
<path fill="url(#SVGID_9_)" stroke="#231F20" stroke-width="0.75" stroke-miterlimit="10" d="M693.31,182.46"/>
<linearGradient id="SVGID_10_" gradientUnits="userSpaceOnUse" x1="422.4473" y1="1587.6201" x2="422.4473" y2="1587.6201" gradientTransform="matrix(1 0 0 -1 281.5 1768.5)">
	<stop  offset="0" style="stop-color:#D5E9F7"/>
	<stop  offset="0.1176" style="stop-color:#B0BDCC"/>
	<stop  offset="0.2902" style="stop-color:#B0C2D1"/>
	<stop  offset="0.4392" style="stop-color:#B4B2B7"/>
	<stop  offset="0.5804" style="stop-color:#DFCEBD"/>
	<stop  offset="0.7255" style="stop-color:#BCB2B1"/>
	<stop  offset="1" style="stop-color:#B4AAAB"/>
</linearGradient>
<path fill="url(#SVGID_10_)" stroke="#231F20" stroke-width="0.75" stroke-miterlimit="10" d="M703.95,180.88"/>
<linearGradient id="SVGID_11_" gradientUnits="userSpaceOnUse" x1="433.1162" y1="1589.0215" x2="433.1162" y2="1589.0215" gradientTransform="matrix(1 0 0 -1 281.5 1768.5)">
	<stop  offset="0" style="stop-color:#D5E9F7"/>
	<stop  offset="0.1176" style="stop-color:#B0BDCC"/>
	<stop  offset="0.2902" style="stop-color:#B0C2D1"/>
	<stop  offset="0.4392" style="stop-color:#B4B2B7"/>
	<stop  offset="0.5804" style="stop-color:#DFCEBD"/>
	<stop  offset="0.7255" style="stop-color:#BCB2B1"/>
	<stop  offset="1" style="stop-color:#B4AAAB"/>
</linearGradient>
<path fill="url(#SVGID_11_)" stroke="#231F20" stroke-width="0.75" stroke-miterlimit="10" d="M714.62,179.48"/>
<linearGradient id="SVGID_12_" gradientUnits="userSpaceOnUse" x1="443.8135" y1="1590.2363" x2="443.8135" y2="1590.2363" gradientTransform="matrix(1 0 0 -1 281.5 1768.5)">
	<stop  offset="0" style="stop-color:#D5E9F7"/>
	<stop  offset="0.1176" style="stop-color:#B0BDCC"/>
	<stop  offset="0.2902" style="stop-color:#B0C2D1"/>
	<stop  offset="0.4392" style="stop-color:#B4B2B7"/>
	<stop  offset="0.5804" style="stop-color:#DFCEBD"/>
	<stop  offset="0.7255" style="stop-color:#BCB2B1"/>
	<stop  offset="1" style="stop-color:#B4AAAB"/>
</linearGradient>
<path fill="url(#SVGID_12_)" stroke="#231F20" stroke-width="0.75" stroke-miterlimit="10" d="M725.31,178.26"/>
<linearGradient id="SVGID_13_" gradientUnits="userSpaceOnUse" x1="465.2363" y1="1592.1152" x2="465.2363" y2="1592.1152" gradientTransform="matrix(1 0 0 -1 281.5 1768.5)">
	<stop  offset="0" style="stop-color:#D5E9F7"/>
	<stop  offset="0.1176" style="stop-color:#B0BDCC"/>
	<stop  offset="0.2902" style="stop-color:#B0C2D1"/>
	<stop  offset="0.4392" style="stop-color:#B4B2B7"/>
	<stop  offset="0.5804" style="stop-color:#DFCEBD"/>
	<stop  offset="0.7255" style="stop-color:#BCB2B1"/>
	<stop  offset="1" style="stop-color:#B4AAAB"/>
</linearGradient>
<path fill="url(#SVGID_13_)" stroke="#231F20" stroke-width="0.75" stroke-miterlimit="10" d="M746.74,176.39"/>
<linearGradient id="SVGID_14_" gradientUnits="userSpaceOnUse" x1="475.9775" y1="1592.7656" x2="475.9775" y2="1592.7656" gradientTransform="matrix(1 0 0 -1 281.5 1768.5)">
	<stop  offset="0" style="stop-color:#D5E9F7"/>
	<stop  offset="0.1176" style="stop-color:#B0BDCC"/>
	<stop  offset="0.2902" style="stop-color:#B0C2D1"/>
	<stop  offset="0.4392" style="stop-color:#B4B2B7"/>
	<stop  offset="0.5804" style="stop-color:#DFCEBD"/>
	<stop  offset="0.7255" style="stop-color:#BCB2B1"/>
	<stop  offset="1" style="stop-color:#B4AAAB"/>
</linearGradient>
<path fill="url(#SVGID_14_)" stroke="#231F20" stroke-width="0.75" stroke-miterlimit="10" d="M757.48,175.73"/>
<linearGradient id="SVGID_15_" gradientUnits="userSpaceOnUse" x1="486.7314" y1="1593.2285" x2="486.7314" y2="1593.2285" gradientTransform="matrix(1 0 0 -1 281.5 1768.5)">
	<stop  offset="0" style="stop-color:#D5E9F7"/>
	<stop  offset="0.1176" style="stop-color:#B0BDCC"/>
	<stop  offset="0.2902" style="stop-color:#B0C2D1"/>
	<stop  offset="0.4392" style="stop-color:#B4B2B7"/>
	<stop  offset="0.5804" style="stop-color:#DFCEBD"/>
	<stop  offset="0.7255" style="stop-color:#BCB2B1"/>
	<stop  offset="1" style="stop-color:#B4AAAB"/>
</linearGradient>
<path fill="url(#SVGID_15_)" stroke="#231F20" stroke-width="0.75" stroke-miterlimit="10" d="M768.23,175.27"/>
<linearGradient id="SVGID_16_" gradientUnits="userSpaceOnUse" x1="497.4873" y1="1593.5176" x2="497.4873" y2="1593.5176" gradientTransform="matrix(1 0 0 -1 281.5 1768.5)">
	<stop  offset="0" style="stop-color:#D5E9F7"/>
	<stop  offset="0.1176" style="stop-color:#B0BDCC"/>
	<stop  offset="0.2902" style="stop-color:#B0C2D1"/>
	<stop  offset="0.4392" style="stop-color:#B4B2B7"/>
	<stop  offset="0.5804" style="stop-color:#DFCEBD"/>
	<stop  offset="0.7255" style="stop-color:#BCB2B1"/>
	<stop  offset="1" style="stop-color:#B4AAAB"/>
</linearGradient>
<path fill="url(#SVGID_16_)" stroke="#231F20" stroke-width="0.75" stroke-miterlimit="10" d="M778.99,174.98"/>
<g>
	<g>
		<path fill="#231F20" d="M862.68,182.09l-0.98-0.13l-3.52,25.98c0.34,0.04,0.68,0.08,1.02,0.13L862.68,182.09z"/>
		<path fill="#231F20" d="M814.44,177.69l-0.99-0.05l-1.25,26.54c0.34,0.01,0.69,0.02,1.03,0.04L814.44,177.69z"/>
		<path fill="#231F20" d="M766,177.51l-0.99,0.04l1.08,26.92c0.34-0.02,0.69-0.03,1.03-0.05L766,177.51z"/>
		<path fill="#231F20" d="M717.73,181.56l-0.98,0.13l3.46,27.05c0.34-0.05,0.68-0.1,1.02-0.14L717.73,181.56z"/>
	</g>
</g>
<g>
	<path fill="#231F20" d="M857.88,181.46l-0.98-0.12l-0.85,6.69c0.33,0.04,0.67,0.07,1.01,0.11L857.88,181.46z"/>
	<path fill="#231F20" d="M848.25,180.33l-0.99-0.11l-0.75,6.83c0.34,0.03,0.67,0.06,1.01,0.1L848.25,180.33z"/>
	<path fill="#231F20" d="M838.61,179.37l-0.98-0.09l-0.64,6.94c0.33,0.03,0.67,0.06,1,0.08L838.61,179.37z"/>
	<path fill="#231F20" d="M828.95,178.57l-0.99-0.07l-0.52,7.03c0.34,0.02,0.67,0.05,1.01,0.07L828.95,178.57z"/>
	<path fill="#231F20" d="M819.28,177.94l-0.99-0.05l-0.4,7.11c0.34,0.02,0.67,0.03,1.01,0.04L819.28,177.94z"/>
	<path fill="#231F20" d="M809.6,177.48l-0.99-0.04l-0.28,7.17c0.34,0.01,0.68,0.02,1.01,0.03L809.6,177.48z"/>
	<path fill="#231F20" d="M799.91,177.2l-0.99-0.02l-0.16,7.21c0.34,0.01,0.68,0.01,1.01,0.02L799.91,177.2z"/>
	<path fill="#231F20" d="M790.22,177.08l-0.99,0l-0.03,7.22c0.34,0,0.67,0.01,1.01,0.01L790.22,177.08z"/>
	<path fill="#231F20" d="M780.53,177.12l-0.99,0.02l0.1,7.21c0.34,0,0.67-0.01,1.01-0.02L780.53,177.12z"/>
	<path fill="#231F20" d="M770.84,177.34l-0.99,0.03l0.22,7.19c0.34-0.01,0.67-0.02,1.01-0.03L770.84,177.34z"/>
	<path fill="#231F20" d="M761.16,177.73l-0.99,0.05l0.34,7.14c0.34-0.01,0.67-0.03,1.01-0.04L761.16,177.73z"/>
	<path fill="#231F20" d="M751.48,178.29l-0.99,0.07l0.46,7.07c0.34-0.02,0.67-0.04,1.01-0.06L751.48,178.29z"/>
	<path fill="#231F20" d="M741.82,179.01l-0.98,0.08l0.58,6.98c0.34-0.03,0.67-0.05,1.01-0.07L741.82,179.01z"/>
	<path fill="#231F20" d="M732.17,179.9l-0.99,0.1l0.69,6.88c0.34-0.03,0.67-0.07,1.01-0.1L732.17,179.9z"/>
	<path fill="#231F20" d="M722.54,180.97l-0.99,0.12l0.8,6.76c0.34-0.04,0.67-0.07,1.01-0.11L722.54,180.97z"/>
</g>
<g>
	<path fill="#231F20" d="M853.07,180.88l-0.98-0.11l-1.45,12.81c0.34,0.04,0.67,0.07,1.01,0.11L853.07,180.88z"/>
	<path fill="#231F20" d="M843.43,179.83l-0.99-0.1l-1.24,12.94c0.34,0.03,0.67,0.06,1.01,0.09L843.43,179.83z"/>
	<path fill="#231F20" d="M833.78,178.95l-0.99-0.08l-0.92,13.06c0.34,0.02,0.67,0.05,1.01,0.07L833.78,178.95z"/>
	<path fill="#231F20" d="M824.12,178.24l-0.99-0.06l-0.87,13.14c0.34,0.02,0.67,0.04,1.01,0.06L824.12,178.24z"/>
	<path fill="#231F20" d="M804.75,177.32l-0.99-0.03l-0.44,13.24c0.34,0.01,0.67,0.02,1.01,0.03L804.75,177.32z"/>
	<path fill="#231F20" d="M795.07,177.11l-0.99-0.01l-0.18,13.27c0.34,0,0.68,0,1.01,0.01L795.07,177.11z"/>
	<path fill="#231F20" d="M785.38,177.08l-0.99,0.01l0.08,13.27c0.34,0,0.67-0.01,1.01-0.01L785.38,177.08z"/>
	<path fill="#231F20" d="M775.69,177.21l-0.99,0.02l0.34,13.25c0.34-0.01,0.68-0.01,1.01-0.02L775.69,177.21z"/>
	<path fill="#231F20" d="M756.32,177.99l-0.99,0.06l0.86,13.13c0.34-0.02,0.68-0.04,1.01-0.06L756.32,177.99z"/>
	<path fill="#231F20" d="M746.65,178.63l-0.99,0.08l0.94,13.05c0.34-0.02,0.67-0.05,1.01-0.07L746.65,178.63z"/>
	<path fill="#231F20" d="M736.99,179.44l-0.99,0.09l1.24,12.94c0.34-0.03,0.67-0.06,1.01-0.08L736.99,179.44z"/>
	<path fill="#231F20" d="M727.35,180.41l-0.98,0.11l1.45,12.8c0.33-0.03,0.67-0.06,1.01-0.1L727.35,180.41z"/>
</g>
<g>
	<path fill="#010101" d="M725.82,218.92c0.53,4.39-0.8,7.01-3.66,7.36c-2.52,0.31-4.52-1.85-5.08-6.11
		c-0.52-4.33,1.05-6.94,3.67-7.26C723.48,212.57,725.32,214.8,725.82,218.92z M718.83,219.96c0.41,3.36,1.67,5.14,3.26,4.94
		c1.79-0.22,2.39-2.41,1.99-5.7c-0.39-3.18-1.45-5.16-3.26-4.94C719.29,214.45,718.4,216.45,718.83,219.96z"/>
</g>
<g>
	<path fill="#010101" d="M760.6,210.1l-0.04,0l-2.2,1.32l-0.4-1.32l2.77-1.64l1.5-0.07l0.57,12.99l-1.7,0.08L760.6,210.1z"/>
	<path fill="#010101" d="M775.87,214.15c0.19,4.42-1.34,6.93-4.21,7.05c-2.54,0.11-4.36-2.19-4.59-6.48
		c-0.19-4.36,1.58-6.84,4.22-6.95C774.02,207.65,775.69,210.02,775.87,214.15z M768.83,214.66c0.15,3.38,1.27,5.25,2.87,5.18
		c1.8-0.08,2.57-2.22,2.42-5.53c-0.14-3.2-1.05-5.26-2.87-5.18C769.71,209.2,768.67,211.13,768.83,214.66z"/>
</g>
<g>
	<path fill="#010101" d="M802.17,220.39l0.07-1.08l1.46-1.25c3.51-2.95,5.11-4.54,5.24-6.5c0.08-1.32-0.48-2.58-2.42-2.69
		c-1.18-0.07-2.19,0.47-2.82,0.93l-0.48-1.27c0.94-0.7,2.26-1.19,3.75-1.09c2.79,0.17,3.86,2.16,3.74,4.02c-0.15,2.4-2,4.23-4.9,6.7
		l-1.1,0.9l0,0.04l5.83,0.35l-0.09,1.46L802.17,220.39z"/>
	<path fill="#010101" d="M821.44,214.9c-0.27,4.41-2.05,6.75-4.93,6.58c-2.54-0.15-4.11-2.64-3.89-6.93
		c0.26-4.35,2.29-6.63,4.92-6.47C820.29,208.24,821.69,210.77,821.44,214.9z M814.38,214.67c-0.21,3.38,0.72,5.35,2.31,5.45
		c1.8,0.11,2.78-1.94,2.98-5.25c0.19-3.2-0.5-5.34-2.31-5.45C815.83,209.33,814.6,211.14,814.38,214.67z"/>
</g>
<g>
	<path fill="#010101" d="M847.27,221.28c0.46,0.38,1.54,1.02,2.75,1.18c2.24,0.29,3.12-1.05,3.24-2.13c0.21-1.81-1.32-2.79-3-3.01
		l-0.97-0.13l0.17-1.31l0.97,0.13c1.27,0.16,2.96-0.29,3.16-1.81c0.13-1.03-0.4-2.03-2.01-2.24c-1.03-0.13-2.08,0.2-2.69,0.52
		l-0.29-1.33c0.74-0.41,2.11-0.74,3.5-0.56c2.54,0.33,3.5,1.98,3.3,3.55c-0.17,1.33-1.11,2.36-2.77,2.73l0,0.04
		c1.55,0.52,2.68,1.88,2.45,3.68c-0.26,2.06-2.1,3.66-5.2,3.27c-1.45-0.19-2.66-0.8-3.24-1.3L847.27,221.28z"/>
	<path fill="#010101" d="M866.18,219.04c-0.56,4.38-2.5,6.6-5.36,6.23c-2.52-0.32-3.92-2.9-3.42-7.17c0.55-4.33,2.73-6.47,5.34-6.13
		C865.47,212.32,866.71,214.94,866.18,219.04z M859.16,218.34c-0.43,3.35,0.36,5.39,1.94,5.59c1.79,0.23,2.91-1.75,3.33-5.04
		c0.41-3.17-0.14-5.36-1.94-5.59C860.96,213.11,859.61,214.83,859.16,218.34z"/>
</g>
<g>
	<g>
		<path fill="#231F20" d="M720.63,1401.6l0.98,0.13l3.52-25.98c-0.34-0.04-0.68-0.08-1.02-0.13L720.63,1401.6z"/>
		<path fill="#231F20" d="M768.87,1406l0.99,0.05l1.25-26.54c-0.34-0.01-0.69-0.02-1.03-0.04L768.87,1406z"/>
		<path fill="#231F20" d="M817.31,1406.18l0.99-0.04l-1.08-26.92c-0.34,0.02-0.69,0.04-1.03,0.05L817.31,1406.18z"/>
		<path fill="#231F20" d="M865.58,1402.14l0.98-0.13l-3.46-27.05c-0.34,0.05-0.68,0.1-1.02,0.14L865.58,1402.14z"/>
	</g>
</g>
<g>
	<path fill="#231F20" d="M725.43,1402.23l0.98,0.12l0.85-6.69c-0.33-0.04-0.67-0.07-1.01-0.11L725.43,1402.23z"/>
	<path fill="#231F20" d="M735.06,1403.36l0.99,0.11l0.75-6.83c-0.34-0.03-0.67-0.06-1.01-0.1L735.06,1403.36z"/>
	<path fill="#231F20" d="M744.7,1404.33l0.98,0.09l0.64-6.94c-0.33-0.03-0.67-0.05-1-0.08L744.7,1404.33z"/>
	<path fill="#231F20" d="M754.36,1405.12l0.99,0.07l0.52-7.03c-0.34-0.02-0.67-0.05-1.01-0.07L754.36,1405.12z"/>
	<path fill="#231F20" d="M764.03,1405.75l0.99,0.05l0.4-7.11c-0.34-0.02-0.67-0.03-1.01-0.04L764.03,1405.75z"/>
	<path fill="#231F20" d="M773.71,1406.21l0.99,0.04l0.28-7.17c-0.34-0.01-0.68-0.02-1.01-0.03L773.71,1406.21z"/>
	<path fill="#231F20" d="M783.4,1406.5l0.99,0.02l0.16-7.21c-0.34-0.01-0.68-0.01-1.01-0.02L783.4,1406.5z"/>
	<path fill="#231F20" d="M793.08,1406.62l0.99,0l0.03-7.22c-0.34,0-0.67-0.01-1.01-0.01L793.08,1406.62z"/>
	<path fill="#231F20" d="M802.78,1406.57l0.99-0.02l-0.1-7.21c-0.34,0-0.67,0.01-1.01,0.02L802.78,1406.57z"/>
	<path fill="#231F20" d="M812.47,1406.35l0.99-0.03l-0.22-7.19c-0.34,0.01-0.67,0.02-1.01,0.03L812.47,1406.35z"/>
	<path fill="#231F20" d="M822.15,1405.96l0.99-0.05l-0.34-7.14c-0.34,0.01-0.67,0.03-1.01,0.04L822.15,1405.96z"/>
	<path fill="#231F20" d="M831.83,1405.41l0.99-0.07l-0.46-7.07c-0.34,0.02-0.67,0.04-1.01,0.06L831.83,1405.41z"/>
	<path fill="#231F20" d="M841.49,1404.68l0.98-0.08l-0.58-6.98c-0.34,0.03-0.67,0.05-1.01,0.07L841.49,1404.68z"/>
	<path fill="#231F20" d="M851.14,1403.79l0.99-0.1l-0.69-6.88c-0.34,0.03-0.67,0.07-1.01,0.1L851.14,1403.79z"/>
	<path fill="#231F20" d="M860.77,1402.73l0.99-0.12l-0.8-6.76c-0.34,0.04-0.67,0.07-1.01,0.11L860.77,1402.73z"/>
</g>
<g>
	<path fill="#231F20" d="M730.24,1402.82l0.98,0.11l1.45-12.81c-0.34-0.04-0.67-0.07-1.01-0.11L730.24,1402.82z"/>
	<path fill="#231F20" d="M739.87,1403.87l0.99,0.1l1.24-12.94c-0.34-0.03-0.67-0.06-1.01-0.09L739.87,1403.87z"/>
	<path fill="#231F20" d="M749.53,1404.75l0.99,0.08l0.92-13.06c-0.34-0.02-0.67-0.04-1.01-0.07L749.53,1404.75z"/>
	<path fill="#231F20" d="M759.19,1405.46l0.99,0.06l0.87-13.14c-0.34-0.02-0.67-0.04-1.01-0.06L759.19,1405.46z"/>
	<path fill="#231F20" d="M778.55,1406.38l0.99,0.03l0.44-13.24c-0.34-0.01-0.67-0.02-1.01-0.03L778.55,1406.38z"/>
	<path fill="#231F20" d="M788.24,1406.58l0.99,0.01l0.18-13.27c-0.34,0-0.68,0-1.01-0.01L788.24,1406.58z"/>
	<path fill="#231F20" d="M797.93,1406.62l0.99,0l-0.08-13.27c-0.34,0-0.67,0-1.01,0.01L797.93,1406.62z"/>
	<path fill="#231F20" d="M807.62,1406.48l0.99-0.02l-0.34-13.25c-0.34,0.01-0.68,0.01-1.01,0.02L807.62,1406.48z"/>
	<path fill="#231F20" d="M826.99,1405.71l0.99-0.06l-0.86-13.13c-0.34,0.02-0.68,0.04-1.01,0.06L826.99,1405.71z"/>
	<path fill="#231F20" d="M836.66,1405.07l0.99-0.08l-0.94-13.05c-0.34,0.02-0.67,0.05-1.01,0.07L836.66,1405.07z"/>
	<path fill="#231F20" d="M846.32,1404.26l0.99-0.09l-1.24-12.94c-0.34,0.03-0.67,0.06-1.01,0.08L846.32,1404.26z"/>
	<path fill="#231F20" d="M855.96,1403.28l0.98-0.11l-1.45-12.8c-0.33,0.03-0.67,0.06-1.01,0.1L855.96,1403.28z"/>
</g>
<g>
	<path fill="#010101" d="M857.49,1364.78c-0.53-4.39,0.8-7.01,3.66-7.36c2.52-0.31,4.52,1.85,5.07,6.12
		c0.53,4.33-1.05,6.94-3.67,7.26C859.83,1371.13,857.99,1368.89,857.49,1364.78z M864.48,1363.73c-0.41-3.36-1.67-5.14-3.26-4.94
		c-1.79,0.22-2.39,2.41-1.99,5.7c0.38,3.18,1.45,5.16,3.26,4.94C864.02,1369.25,864.91,1367.25,864.48,1363.73z"/>
</g>
<g>
	<path fill="#010101" d="M822.71,1373.59l0.04,0l2.2-1.32l0.4,1.32l-2.77,1.64l-1.5,0.07l-0.57-12.99l1.7-0.08L822.71,1373.59z"/>
	<path fill="#010101" d="M807.44,1369.54c-0.2-4.42,1.34-6.93,4.21-7.05c2.54-0.11,4.36,2.19,4.59,6.49
		c0.19,4.36-1.58,6.84-4.22,6.95C809.29,1376.05,807.62,1373.68,807.44,1369.54z M814.48,1369.03c-0.15-3.38-1.27-5.25-2.87-5.18
		c-1.8,0.08-2.57,2.22-2.42,5.53c0.14,3.2,1.05,5.26,2.87,5.18C813.6,1374.49,814.64,1372.57,814.48,1369.03z"/>
</g>
<g>
	<path fill="#010101" d="M781.14,1363.31l-0.07,1.08l-1.46,1.25c-3.51,2.95-5.11,4.54-5.25,6.5c-0.08,1.32,0.48,2.57,2.42,2.69
		c1.18,0.07,2.19-0.47,2.82-0.93l0.48,1.27c-0.94,0.71-2.26,1.19-3.75,1.09c-2.79-0.17-3.86-2.16-3.74-4.02c0.15-2.4,2-4.23,4.9-6.7
		l1.1-0.9l0-0.04l-5.83-0.35l0.09-1.46L781.14,1363.31z"/>
	<path fill="#010101" d="M761.87,1368.79c0.27-4.41,2.05-6.75,4.93-6.57c2.54,0.15,4.11,2.63,3.89,6.93
		c-0.26,4.35-2.29,6.63-4.92,6.47C763.02,1375.46,761.61,1372.92,761.87,1368.79z M768.93,1369.02c0.21-3.38-0.72-5.35-2.31-5.45
		c-1.8-0.11-2.78,1.94-2.98,5.25c-0.19,3.19,0.5,5.34,2.31,5.45C767.48,1374.36,768.71,1372.55,768.93,1369.02z"/>
</g>
<g>
	<path fill="#010101" d="M736.04,1362.42c-0.46-0.38-1.54-1.02-2.75-1.18c-2.24-0.29-3.12,1.05-3.24,2.13
		c-0.21,1.81,1.32,2.79,3,3.01l0.97,0.13l-0.17,1.31l-0.97-0.13c-1.27-0.16-2.96,0.29-3.16,1.81c-0.13,1.03,0.4,2.03,2.01,2.23
		c1.03,0.13,2.08-0.2,2.69-0.52l0.29,1.33c-0.74,0.41-2.11,0.74-3.5,0.56c-2.54-0.33-3.5-1.98-3.3-3.55
		c0.17-1.33,1.11-2.36,2.77-2.73l0.01-0.04c-1.55-0.52-2.68-1.88-2.45-3.68c0.26-2.06,2.1-3.66,5.2-3.27
		c1.45,0.19,2.66,0.8,3.24,1.3L736.04,1362.42z"/>
	<path fill="#010101" d="M717.13,1364.65c0.56-4.39,2.5-6.6,5.36-6.23c2.52,0.32,3.92,2.9,3.42,7.17c-0.55,4.33-2.72,6.47-5.34,6.13
		C717.84,1371.38,716.6,1368.76,717.13,1364.65z M724.15,1365.35c0.43-3.35-0.36-5.39-1.95-5.59c-1.79-0.23-2.91,1.75-3.33,5.04
		c-0.41,3.17,0.14,5.36,1.95,5.59C722.35,1370.59,723.7,1368.86,724.15,1365.35z"/>
</g>
</svg>
